<svg width="274" height="88" viewBox="0 0 274 88" fill="none" xmlns="http://www.w3.org/2000/svg">
<path d="M14.56 28C12.3733 28 10.4 27.64 8.64 26.92C6.90667 26.1733 5.4 25.16 4.12 23.88C2.86667 22.6 1.89333 21.12 1.2 19.44C0.533333 17.7333 0.2 15.92 0.2 14C0.2 12.08 0.533333 10.28 1.2 8.6C1.89333 6.89333 2.86667 5.4 4.12 4.12C5.4 2.84 6.90667 1.84 8.64 1.12C10.4 0.373331 12.3733 -1.90735e-06 14.56 -1.90735e-06H18.52V4.2H14.68C13.2667 4.2 11.9733 4.45333 10.8 4.96C9.62667 5.46667 8.6 6.16 7.72 7.04C6.86667 7.92 6.2 8.96 5.72 10.16C5.24 11.3333 5 12.6133 5 14C5 15.3867 5.24 16.68 5.72 17.88C6.2 19.08 6.86667 20.12 7.72 21C8.6 21.8533 9.62667 22.5333 10.8 23.04C11.9733 23.52 13.2667 23.76 14.68 23.76H18.52V28H14.56ZM32.5347 28.48C30.428 28.48 28.5614 28.0133 26.9347 27.08C25.308 26.12 24.0147 24.84 23.0547 23.24C22.1214 21.6133 21.6547 19.8 21.6547 17.8C21.6547 15.8 22.1214 14 23.0547 12.4C24.0147 10.7733 25.308 9.49333 26.9347 8.56C28.5614 7.6 30.428 7.12 32.5347 7.12C34.6147 7.12 36.468 7.6 38.0947 8.56C39.7214 9.49333 41.0014 10.76 41.9347 12.36C42.8947 13.96 43.3747 15.7733 43.3747 17.8C43.3747 19.8 42.8947 21.6133 41.9347 23.24C41.0014 24.84 39.7214 26.12 38.0947 27.08C36.468 28.0133 34.6147 28.48 32.5347 28.48ZM32.5347 24.56C33.788 24.56 34.8814 24.2667 35.8147 23.68C36.748 23.0667 37.468 22.2533 37.9747 21.24C38.4814 20.2267 38.7347 19.08 38.7347 17.8C38.7347 16.5467 38.4814 15.4133 37.9747 14.4C37.468 13.36 36.748 12.5467 35.8147 11.96C34.8814 11.3467 33.788 11.04 32.5347 11.04C31.2547 11.04 30.148 11.3467 29.2147 11.96C28.308 12.5467 27.588 13.3467 27.0547 14.36C26.548 15.3733 26.2947 16.52 26.2947 17.8C26.2947 19.0533 26.548 20.2 27.0547 21.24C27.588 22.2533 28.308 23.0667 29.2147 23.68C30.148 24.2667 31.2547 24.56 32.5347 24.56ZM47.7366 28V16.24C47.7366 14.48 48.1366 12.92 48.9366 11.56C49.7366 10.1733 50.8699 9.09333 52.3366 8.32C53.8032 7.52 55.5232 7.12 57.4966 7.12C59.4699 7.12 61.1766 7.52 62.6166 8.32C64.0832 9.09333 65.2166 10.1733 66.0166 11.56C66.8166 12.92 67.2166 14.48 67.2166 16.24V28H62.6566V16.28C62.6566 15.24 62.4166 14.3333 61.9366 13.56C61.4566 12.76 60.8166 12.1467 60.0166 11.72C59.2432 11.2667 58.3899 11.04 57.4566 11.04C56.5499 11.04 55.6966 11.2667 54.8966 11.72C54.1232 12.1467 53.4966 12.76 53.0166 13.56C52.5632 14.3333 52.3366 15.24 52.3366 16.28V28H47.7366ZM79.7766 28C77.9632 28 76.5366 27.48 75.4966 26.44C74.4832 25.4 73.9766 23.9867 73.9766 22.2V2.48H78.5366V22C78.5366 22.6133 78.7232 23.12 79.0966 23.52C79.4699 23.8933 79.9632 24.08 80.5766 24.08H84.8566V28H79.7766ZM70.4566 11.52V7.6H84.8966V11.52H70.4566ZM96.7978 28.48C94.8511 28.48 93.1711 28 91.7578 27.04C90.3445 26.08 89.2511 24.8 88.4778 23.2C87.7311 21.5733 87.3578 19.7867 87.3578 17.84C87.3578 15.8133 87.7845 14 88.6378 12.4C89.5178 10.7733 90.7578 9.49333 92.3578 8.56C93.9845 7.6 95.9178 7.12 98.1578 7.12C100.371 7.12 102.251 7.6 103.798 8.56C105.371 9.49333 106.571 10.7733 107.398 12.4C108.251 14 108.678 15.7867 108.678 17.76V28H104.078V24.2H103.998C103.598 24.9467 103.078 25.6533 102.438 26.32C101.798 26.96 101.011 27.48 100.078 27.88C99.1445 28.28 98.0511 28.48 96.7978 28.48ZM98.0378 24.56C99.2378 24.56 100.278 24.2667 101.158 23.68C102.064 23.0667 102.758 22.2533 103.238 21.24C103.744 20.2 103.998 19.04 103.998 17.76C103.998 16.48 103.758 15.3467 103.278 14.36C102.798 13.3467 102.118 12.5467 101.238 11.96C100.358 11.3467 99.3045 11.04 98.0778 11.04C96.7978 11.04 95.7045 11.3467 94.7978 11.96C93.8911 12.5467 93.1978 13.3467 92.7178 14.36C92.2378 15.3733 91.9978 16.52 91.9978 17.8C91.9978 19.0533 92.2378 20.2 92.7178 21.24C93.1978 22.2533 93.8778 23.0667 94.7578 23.68C95.6645 24.2667 96.7578 24.56 98.0378 24.56ZM121.222 28C119.409 28 117.982 27.48 116.942 26.44C115.929 25.4 115.422 23.9867 115.422 22.2V2.48H119.982V22C119.982 22.6133 120.169 23.12 120.542 23.52C120.915 23.8933 121.409 24.08 122.022 24.08H126.302V28H121.222ZM111.902 11.52V7.6H126.342V11.52H111.902ZM140.283 28C137.99 28 135.976 27.5733 134.243 26.72C132.536 25.84 131.203 24.64 130.243 23.12C129.283 21.5733 128.803 19.8 128.803 17.8C128.803 15.6933 129.23 13.84 130.083 12.24C130.936 10.64 132.11 9.38667 133.603 8.48C135.096 7.57333 136.816 7.12 138.763 7.12C140.95 7.12 142.75 7.58667 144.163 8.52C145.576 9.45333 146.616 10.7067 147.283 12.28C147.976 13.8533 148.323 15.6133 148.323 17.56C148.323 17.8267 148.31 18.1333 148.283 18.48C148.256 18.8267 148.216 19.0933 148.163 19.28H133.683C133.843 20.3467 134.23 21.24 134.843 21.96C135.456 22.6533 136.23 23.1867 137.163 23.56C138.096 23.9067 139.136 24.08 140.283 24.08H145.763V28H140.283ZM133.643 16.16H143.723C143.696 15.6533 143.616 15.1467 143.483 14.64C143.376 14.1333 143.19 13.6533 142.923 13.2C142.683 12.7467 142.363 12.36 141.963 12.04C141.59 11.6933 141.136 11.4267 140.603 11.24C140.07 11.0267 139.456 10.92 138.763 10.92C137.963 10.92 137.256 11.08 136.643 11.4C136.03 11.6933 135.51 12.0933 135.083 12.6C134.656 13.08 134.323 13.64 134.083 14.28C133.87 14.8933 133.723 15.52 133.643 16.16ZM171.485 28.48C169.539 28.48 167.859 28 166.445 27.04C165.032 26.08 163.939 24.8 163.165 23.2C162.419 21.5733 162.045 19.7867 162.045 17.84C162.045 15.8133 162.472 14 163.325 12.4C164.205 10.7733 165.445 9.49333 167.045 8.56C168.672 7.6 170.605 7.12 172.845 7.12C175.059 7.12 176.939 7.6 178.485 8.56C180.059 9.49333 181.259 10.7733 182.085 12.4C182.939 14 183.365 15.7867 183.365 17.76V28H178.765V24.2H178.685C178.285 24.9467 177.765 25.6533 177.125 26.32C176.485 26.96 175.699 27.48 174.765 27.88C173.832 28.28 172.739 28.48 171.485 28.48ZM172.725 24.56C173.925 24.56 174.965 24.2667 175.845 23.68C176.752 23.0667 177.445 22.2533 177.925 21.24C178.432 20.2 178.685 19.04 178.685 17.76C178.685 16.48 178.445 15.3467 177.965 14.36C177.485 13.3467 176.805 12.5467 175.925 11.96C175.045 11.3467 173.992 11.04 172.765 11.04C171.485 11.04 170.392 11.3467 169.485 11.96C168.579 12.5467 167.885 13.3467 167.405 14.36C166.925 15.3733 166.685 16.52 166.685 17.8C166.685 19.0533 166.925 20.2 167.405 21.24C167.885 22.2533 168.565 23.0667 169.445 23.68C170.352 24.2667 171.445 24.56 172.725 24.56Z" fill="white"/>
<path d="M78.6436 87.576C75.9876 87.576 73.6356 87.048 71.5876 85.992C69.5716 84.904 67.9876 83.352 66.8356 81.336C65.6836 79.32 65.1076 76.936 65.1076 74.184V53.4H73.0276V74.472C73.0276 75.624 73.2516 76.664 73.6996 77.592C74.1476 78.52 74.7876 79.256 75.6196 79.8C76.4836 80.344 77.4916 80.616 78.6436 80.616C79.7956 80.616 80.7876 80.344 81.6196 79.8C82.4516 79.256 83.0916 78.52 83.5396 77.592C84.0196 76.664 84.2596 75.624 84.2596 74.472V53.4H92.1796V74.472C92.1796 75.624 92.4036 76.664 92.8516 77.592C93.2996 78.52 93.9396 79.256 94.7716 79.8C95.6356 80.344 96.6436 80.616 97.7956 80.616C98.9476 80.616 99.9396 80.344 100.772 79.8C101.636 79.256 102.292 78.52 102.74 77.592C103.188 76.664 103.412 75.624 103.412 74.472V53.4H111.332V74.184C111.332 76.936 110.756 79.32 109.604 81.336C108.452 83.352 106.852 84.904 104.804 85.992C102.788 87.048 100.452 87.576 97.7956 87.576C96.4836 87.576 95.2356 87.416 94.0516 87.096C92.8996 86.808 91.8276 86.36 90.8356 85.752C89.8756 85.144 88.9956 84.408 88.1956 83.544C87.4276 84.408 86.5476 85.144 85.5556 85.752C84.5636 86.328 83.4916 86.776 82.3396 87.096C81.1876 87.416 79.9556 87.576 78.6436 87.576ZM129.586 87C126.802 87 124.354 86.488 122.242 85.464C120.13 84.408 118.482 82.968 117.298 81.144C116.146 79.288 115.57 77.144 115.57 74.712C115.57 72.024 116.13 69.72 117.25 67.8C118.37 65.88 119.858 64.408 121.714 63.384C123.602 62.328 125.682 61.8 127.954 61.8C130.546 61.8 132.706 62.344 134.434 63.432C136.194 64.52 137.522 66.008 138.418 67.896C139.314 69.752 139.762 71.88 139.762 74.28C139.762 74.696 139.73 75.192 139.666 75.768C139.634 76.312 139.586 76.744 139.522 77.064H123.394C123.586 77.896 123.954 78.6 124.498 79.176C125.042 79.752 125.73 80.184 126.562 80.472C127.394 80.728 128.322 80.856 129.346 80.856H136.882V87H129.586ZM123.202 72.408H132.562C132.498 71.896 132.402 71.4 132.274 70.92C132.146 70.44 131.938 70.024 131.65 69.672C131.394 69.288 131.09 68.968 130.738 68.712C130.386 68.424 129.97 68.2 129.49 68.04C129.042 67.88 128.53 67.8 127.954 67.8C127.218 67.8 126.562 67.928 125.986 68.184C125.41 68.44 124.93 68.792 124.546 69.24C124.162 69.656 123.858 70.152 123.634 70.728C123.442 71.272 123.298 71.832 123.202 72.408ZM161.521 87C159.473 87 157.665 86.552 156.097 85.656C154.561 84.728 153.345 83.496 152.449 81.96C151.585 80.424 151.153 78.712 151.153 76.824V60.12H142.033V53.4H168.289V60.12H159.217V77.544C159.217 78.28 159.473 78.92 159.985 79.464C160.497 80.008 161.137 80.28 161.905 80.28H164.545V87H161.521ZM164.905 87V69.624C164.905 67.384 165.545 65.624 166.825 64.344C168.105 63.064 169.881 62.424 172.153 62.424H179.305V68.472H173.977C173.529 68.472 173.145 68.632 172.825 68.952C172.505 69.24 172.345 69.624 172.345 70.104V87H164.905ZM192.516 87.576C190.34 87.576 188.42 87.016 186.756 85.896C185.092 84.776 183.796 83.272 182.868 81.384C181.94 79.464 181.476 77.304 181.476 74.904C181.476 72.408 182.02 70.184 183.108 68.232C184.196 66.248 185.732 64.68 187.716 63.528C189.732 62.376 192.1 61.8 194.82 61.8C197.572 61.8 199.908 62.376 201.828 63.528C203.78 64.648 205.268 66.2 206.292 68.184C207.348 70.136 207.876 72.328 207.876 74.76V87H200.58V83.064H200.388C199.94 83.928 199.364 84.712 198.66 85.416C197.956 86.088 197.092 86.616 196.068 87C195.076 87.384 193.892 87.576 192.516 87.576ZM194.724 81.144C195.844 81.144 196.82 80.872 197.652 80.328C198.516 79.752 199.172 78.968 199.62 77.976C200.068 76.984 200.292 75.88 200.292 74.664C200.292 73.48 200.068 72.408 199.62 71.448C199.172 70.488 198.516 69.736 197.652 69.192C196.82 68.616 195.844 68.328 194.724 68.328C193.572 68.328 192.564 68.616 191.7 69.192C190.836 69.736 190.18 70.488 189.732 71.448C189.284 72.408 189.06 73.48 189.06 74.664C189.06 75.88 189.284 76.984 189.732 77.976C190.18 78.968 190.836 79.752 191.7 80.328C192.564 80.872 193.572 81.144 194.724 81.144ZM222.688 87.576C221.216 87.576 219.872 87.192 218.656 86.424C217.44 85.656 216.608 84.616 216.16 83.304L209.152 62.376H217.312L222.256 79.944C222.32 80.072 222.384 80.168 222.448 80.232C222.544 80.296 222.64 80.328 222.736 80.328C222.864 80.328 222.96 80.296 223.024 80.232C223.12 80.168 223.184 80.072 223.216 79.944L228.256 62.376H236.224L229.216 83.304C228.768 84.616 227.936 85.656 226.72 86.424C225.536 87.192 224.192 87.576 222.688 87.576ZM251.414 87C248.63 87 246.182 86.488 244.07 85.464C241.958 84.408 240.31 82.968 239.126 81.144C237.974 79.288 237.398 77.144 237.398 74.712C237.398 72.024 237.958 69.72 239.078 67.8C240.198 65.88 241.686 64.408 243.542 63.384C245.43 62.328 247.51 61.8 249.782 61.8C252.374 61.8 254.534 62.344 256.262 63.432C258.022 64.52 259.35 66.008 260.246 67.896C261.142 69.752 261.59 71.88 261.59 74.28C261.59 74.696 261.558 75.192 261.494 75.768C261.462 76.312 261.414 76.744 261.35 77.064H245.222C245.414 77.896 245.782 78.6 246.326 79.176C246.87 79.752 247.558 80.184 248.39 80.472C249.222 80.728 250.15 80.856 251.174 80.856H258.71V87H251.414ZM245.03 72.408H254.39C254.326 71.896 254.23 71.4 254.102 70.92C253.974 70.44 253.766 70.024 253.478 69.672C253.222 69.288 252.918 68.968 252.566 68.712C252.214 68.424 251.798 68.2 251.318 68.04C250.87 67.88 250.358 67.8 249.782 67.8C249.046 67.8 248.39 67.928 247.814 68.184C247.238 68.44 246.758 68.792 246.374 69.24C245.99 69.656 245.686 70.152 245.462 70.728C245.27 71.272 245.126 71.832 245.03 72.408ZM265.925 87V51.96H273.365V87H265.925Z" fill="#7846FF"/>
</svg>
