<svg width="349" height="129" viewBox="0 0 349 129" fill="none" xmlns="http://www.w3.org/2000/svg">
<path d="M2.92 39V11H14.68C16.4667 11 18.0933 11.4133 19.56 12.24C21.0533 13.04 22.24 14.1733 23.12 15.64C24 17.08 24.44 18.76 24.44 20.68C24.44 22.5733 24 24.2533 23.12 25.72C22.2667 27.1867 21.0933 28.3333 19.6 29.16C18.1333 29.96 16.48 30.36 14.64 30.36H7.68V39H2.92ZM7.68 26.16H14.08C15.12 26.16 16.0533 25.9467 16.88 25.52C17.7333 25.0933 18.4 24.4667 18.88 23.64C19.3867 22.8133 19.64 21.84 19.64 20.72C19.64 19.5467 19.3867 18.56 18.88 17.76C18.4 16.9333 17.7333 16.3067 16.88 15.88C16.0533 15.4267 15.1333 15.2 14.12 15.2H7.68V26.16ZM28.3031 39V24.4C28.3031 22.5867 28.8098 21.1733 29.8231 20.16C30.8631 19.12 32.2898 18.6 34.1031 18.6H39.0231V22.52H34.9431C34.3031 22.52 33.7965 22.7067 33.4231 23.08C33.0765 23.4533 32.9031 23.96 32.9031 24.6V39H28.3031ZM51.9331 39.48C49.8265 39.48 47.9598 39.0133 46.3331 38.08C44.7065 37.12 43.4131 35.84 42.4531 34.24C41.5198 32.6133 41.0531 30.8 41.0531 28.8C41.0531 26.8 41.5198 25 42.4531 23.4C43.4131 21.7733 44.7065 20.4933 46.3331 19.56C47.9598 18.6 49.8265 18.12 51.9331 18.12C54.0131 18.12 55.8665 18.6 57.4931 19.56C59.1198 20.4933 60.3998 21.76 61.3331 23.36C62.2931 24.96 62.7731 26.7733 62.7731 28.8C62.7731 30.8 62.2931 32.6133 61.3331 34.24C60.3998 35.84 59.1198 37.12 57.4931 38.08C55.8665 39.0133 54.0131 39.48 51.9331 39.48ZM51.9331 35.56C53.1865 35.56 54.2798 35.2667 55.2131 34.68C56.1465 34.0667 56.8665 33.2533 57.3731 32.24C57.8798 31.2267 58.1331 30.08 58.1331 28.8C58.1331 27.5467 57.8798 26.4133 57.3731 25.4C56.8665 24.36 56.1465 23.5467 55.2131 22.96C54.2798 22.3467 53.1865 22.04 51.9331 22.04C50.6531 22.04 49.5465 22.3467 48.6131 22.96C47.7065 23.5467 46.9865 24.3467 46.4531 25.36C45.9465 26.3733 45.6931 27.52 45.6931 28.8C45.6931 30.0533 45.9465 31.2 46.4531 32.24C46.9865 33.2533 47.7065 34.0667 48.6131 34.68C49.5465 35.2667 50.6531 35.56 51.9331 35.56ZM61.295 46.36V42.44H65.135C65.775 42.44 66.2683 42.24 66.615 41.84C66.9883 41.4667 67.175 40.9733 67.175 40.36V18.6H71.735V40.56C71.735 42.3467 71.215 43.76 70.175 44.8C69.1617 45.84 67.7483 46.36 65.935 46.36H61.295ZM69.375 15.72C68.575 15.72 67.8817 15.4267 67.295 14.84C66.7083 14.2533 66.415 13.56 66.415 12.76C66.415 11.96 66.7083 11.2667 67.295 10.68C67.8817 10.0933 68.575 9.8 69.375 9.8C70.2017 9.8 70.895 10.0933 71.455 10.68C72.0417 11.2667 72.335 11.96 72.335 12.76C72.335 13.56 72.0417 14.2533 71.455 14.84C70.895 15.4267 70.2017 15.72 69.375 15.72ZM87.5722 39C85.2789 39 83.2655 38.5733 81.5322 37.72C79.8255 36.84 78.4922 35.64 77.5322 34.12C76.5722 32.5733 76.0922 30.8 76.0922 28.8C76.0922 26.6933 76.5189 24.84 77.3722 23.24C78.2255 21.64 79.3989 20.3867 80.8922 19.48C82.3855 18.5733 84.1055 18.12 86.0522 18.12C88.2389 18.12 90.0389 18.5867 91.4522 19.52C92.8655 20.4533 93.9055 21.7067 94.5722 23.28C95.2655 24.8533 95.6122 26.6133 95.6122 28.56C95.6122 28.8267 95.5989 29.1333 95.5722 29.48C95.5455 29.8267 95.5055 30.0933 95.4522 30.28H80.9722C81.1322 31.3467 81.5189 32.24 82.1322 32.96C82.7455 33.6533 83.5189 34.1867 84.4522 34.56C85.3855 34.9067 86.4255 35.08 87.5722 35.08H93.0522V39H87.5722ZM80.9322 27.16H91.0122C90.9855 26.6533 90.9055 26.1467 90.7722 25.64C90.6655 25.1333 90.4789 24.6533 90.2122 24.2C89.9722 23.7467 89.6522 23.36 89.2522 23.04C88.8789 22.6933 88.4255 22.4267 87.8922 22.24C87.3589 22.0267 86.7455 21.92 86.0522 21.92C85.2522 21.92 84.5455 22.08 83.9322 22.4C83.3189 22.6933 82.7989 23.0933 82.3722 23.6C81.9455 24.08 81.6122 24.64 81.3722 25.28C81.1589 25.8933 81.0122 26.52 80.9322 27.16ZM106.948 39C105.135 39 103.708 38.48 102.668 37.44C101.655 36.4 101.148 34.9867 101.148 33.2V13.48H105.708V33C105.708 33.6133 105.895 34.12 106.268 34.52C106.642 34.8933 107.135 35.08 107.748 35.08H112.028V39H106.948ZM97.6284 22.52V18.6H112.068V22.52H97.6284ZM125.41 39.48C123.303 39.48 121.436 39.0133 119.81 38.08C118.183 37.12 116.89 35.84 115.93 34.24C114.996 32.6133 114.53 30.8 114.53 28.8C114.53 26.8 114.996 25 115.93 23.4C116.89 21.7733 118.183 20.4933 119.81 19.56C121.436 18.6 123.303 18.12 125.41 18.12C127.49 18.12 129.343 18.6 130.97 19.56C132.596 20.4933 133.876 21.76 134.81 23.36C135.77 24.96 136.25 26.7733 136.25 28.8C136.25 30.8 135.77 32.6133 134.81 34.24C133.876 35.84 132.596 37.12 130.97 38.08C129.343 39.0133 127.49 39.48 125.41 39.48ZM125.41 35.56C126.663 35.56 127.756 35.2667 128.69 34.68C129.623 34.0667 130.343 33.2533 130.85 32.24C131.356 31.2267 131.61 30.08 131.61 28.8C131.61 27.5467 131.356 26.4133 130.85 25.4C130.343 24.36 129.623 23.5467 128.69 22.96C127.756 22.3467 126.663 22.04 125.41 22.04C124.13 22.04 123.023 22.3467 122.09 22.96C121.183 23.5467 120.463 24.3467 119.93 25.36C119.423 26.3733 119.17 27.52 119.17 28.8C119.17 30.0533 119.423 31.2 119.93 32.24C120.463 33.2533 121.183 34.0667 122.09 34.68C123.023 35.2667 124.13 35.56 125.41 35.56ZM140.532 39V35.08H150.372C150.852 35.08 151.265 34.9733 151.612 34.76C151.985 34.5467 152.265 34.2667 152.452 33.92C152.665 33.5733 152.772 33.2133 152.772 32.84C152.772 32.4133 152.678 32.04 152.492 31.72C152.305 31.4 152.038 31.1467 151.692 30.96C151.345 30.7467 150.945 30.64 150.492 30.64H146.492C145.185 30.64 144.025 30.4267 143.012 30C141.998 29.5733 141.198 28.92 140.612 28.04C140.025 27.1333 139.732 26 139.732 24.64C139.732 23.5467 139.998 22.5467 140.532 21.64C141.092 20.7333 141.838 20 142.772 19.44C143.705 18.88 144.758 18.6 145.932 18.6H155.412V22.52H146.372C145.758 22.52 145.252 22.72 144.852 23.12C144.452 23.4933 144.252 23.96 144.252 24.52C144.252 25.0533 144.452 25.52 144.852 25.92C145.252 26.32 145.785 26.52 146.452 26.52H150.332C151.798 26.52 153.052 26.7467 154.092 27.2C155.132 27.6533 155.918 28.3333 156.452 29.24C157.012 30.1467 157.292 31.2933 157.292 32.68C157.292 33.8 157.012 34.8533 156.452 35.84C155.892 36.8 155.118 37.5733 154.132 38.16C153.172 38.72 152.078 39 150.852 39H140.532Z" fill="white"/>
<path d="M79.6436 98.576C76.9876 98.576 74.6356 98.048 72.5876 96.992C70.5716 95.904 68.9876 94.352 67.8356 92.336C66.6836 90.32 66.1076 87.936 66.1076 85.184V64.4H74.0276V85.472C74.0276 86.624 74.2516 87.664 74.6996 88.592C75.1476 89.52 75.7876 90.256 76.6196 90.8C77.4836 91.344 78.4916 91.616 79.6436 91.616C80.7956 91.616 81.7876 91.344 82.6196 90.8C83.4516 90.256 84.0916 89.52 84.5396 88.592C85.0196 87.664 85.2596 86.624 85.2596 85.472V64.4H93.1796V85.472C93.1796 86.624 93.4036 87.664 93.8516 88.592C94.2996 89.52 94.9396 90.256 95.7716 90.8C96.6356 91.344 97.6436 91.616 98.7956 91.616C99.9476 91.616 100.94 91.344 101.772 90.8C102.636 90.256 103.292 89.52 103.74 88.592C104.188 87.664 104.412 86.624 104.412 85.472V64.4H112.332V85.184C112.332 87.936 111.756 90.32 110.604 92.336C109.452 94.352 107.852 95.904 105.804 96.992C103.788 98.048 101.452 98.576 98.7956 98.576C97.4836 98.576 96.2356 98.416 95.0516 98.096C93.8996 97.808 92.8276 97.36 91.8356 96.752C90.8756 96.144 89.9956 95.408 89.1956 94.544C88.4276 95.408 87.5476 96.144 86.5556 96.752C85.5636 97.328 84.4916 97.776 83.3396 98.096C82.1876 98.416 80.9556 98.576 79.6436 98.576ZM130.586 98C127.802 98 125.354 97.488 123.242 96.464C121.13 95.408 119.482 93.968 118.298 92.144C117.146 90.288 116.57 88.144 116.57 85.712C116.57 83.024 117.13 80.72 118.25 78.8C119.37 76.88 120.858 75.408 122.714 74.384C124.602 73.328 126.682 72.8 128.954 72.8C131.546 72.8 133.706 73.344 135.434 74.432C137.194 75.52 138.522 77.008 139.418 78.896C140.314 80.752 140.762 82.88 140.762 85.28C140.762 85.696 140.73 86.192 140.666 86.768C140.634 87.312 140.586 87.744 140.522 88.064H124.394C124.586 88.896 124.954 89.6 125.498 90.176C126.042 90.752 126.73 91.184 127.562 91.472C128.394 91.728 129.322 91.856 130.346 91.856H137.882V98H130.586ZM124.202 83.408H133.562C133.498 82.896 133.402 82.4 133.274 81.92C133.146 81.44 132.938 81.024 132.65 80.672C132.394 80.288 132.09 79.968 131.738 79.712C131.386 79.424 130.97 79.2 130.49 79.04C130.042 78.88 129.53 78.8 128.954 78.8C128.218 78.8 127.562 78.928 126.986 79.184C126.41 79.44 125.93 79.792 125.546 80.24C125.162 80.656 124.858 81.152 124.634 81.728C124.442 82.272 124.298 82.832 124.202 83.408ZM162.521 98C160.473 98 158.665 97.552 157.097 96.656C155.561 95.728 154.345 94.496 153.449 92.96C152.585 91.424 152.153 89.712 152.153 87.824V71.12H143.033V64.4H169.289V71.12H160.217V88.544C160.217 89.28 160.473 89.92 160.985 90.464C161.497 91.008 162.137 91.28 162.905 91.28H165.545V98H162.521ZM165.905 98V80.624C165.905 78.384 166.545 76.624 167.825 75.344C169.105 74.064 170.881 73.424 173.153 73.424H180.305V79.472H174.977C174.529 79.472 174.145 79.632 173.825 79.952C173.505 80.24 173.345 80.624 173.345 81.104V98H165.905ZM193.516 98.576C191.34 98.576 189.42 98.016 187.756 96.896C186.092 95.776 184.796 94.272 183.868 92.384C182.94 90.464 182.476 88.304 182.476 85.904C182.476 83.408 183.02 81.184 184.108 79.232C185.196 77.248 186.732 75.68 188.716 74.528C190.732 73.376 193.1 72.8 195.82 72.8C198.572 72.8 200.908 73.376 202.828 74.528C204.78 75.648 206.268 77.2 207.292 79.184C208.348 81.136 208.876 83.328 208.876 85.76V98H201.58V94.064H201.388C200.94 94.928 200.364 95.712 199.66 96.416C198.956 97.088 198.092 97.616 197.068 98C196.076 98.384 194.892 98.576 193.516 98.576ZM195.724 92.144C196.844 92.144 197.82 91.872 198.652 91.328C199.516 90.752 200.172 89.968 200.62 88.976C201.068 87.984 201.292 86.88 201.292 85.664C201.292 84.48 201.068 83.408 200.62 82.448C200.172 81.488 199.516 80.736 198.652 80.192C197.82 79.616 196.844 79.328 195.724 79.328C194.572 79.328 193.564 79.616 192.7 80.192C191.836 80.736 191.18 81.488 190.732 82.448C190.284 83.408 190.06 84.48 190.06 85.664C190.06 86.88 190.284 87.984 190.732 88.976C191.18 89.968 191.836 90.752 192.7 91.328C193.564 91.872 194.572 92.144 195.724 92.144ZM223.688 98.576C222.216 98.576 220.872 98.192 219.656 97.424C218.44 96.656 217.608 95.616 217.16 94.304L210.152 73.376H218.312L223.256 90.944C223.32 91.072 223.384 91.168 223.448 91.232C223.544 91.296 223.64 91.328 223.736 91.328C223.864 91.328 223.96 91.296 224.024 91.232C224.12 91.168 224.184 91.072 224.216 90.944L229.256 73.376H237.224L230.216 94.304C229.768 95.616 228.936 96.656 227.72 97.424C226.536 98.192 225.192 98.576 223.688 98.576ZM252.414 98C249.63 98 247.182 97.488 245.07 96.464C242.958 95.408 241.31 93.968 240.126 92.144C238.974 90.288 238.398 88.144 238.398 85.712C238.398 83.024 238.958 80.72 240.078 78.8C241.198 76.88 242.686 75.408 244.542 74.384C246.43 73.328 248.51 72.8 250.782 72.8C253.374 72.8 255.534 73.344 257.262 74.432C259.022 75.52 260.35 77.008 261.246 78.896C262.142 80.752 262.59 82.88 262.59 85.28C262.59 85.696 262.558 86.192 262.494 86.768C262.462 87.312 262.414 87.744 262.35 88.064H246.222C246.414 88.896 246.782 89.6 247.326 90.176C247.87 90.752 248.558 91.184 249.39 91.472C250.222 91.728 251.15 91.856 252.174 91.856H259.71V98H252.414ZM246.03 83.408H255.39C255.326 82.896 255.23 82.4 255.102 81.92C254.974 81.44 254.766 81.024 254.478 80.672C254.222 80.288 253.918 79.968 253.566 79.712C253.214 79.424 252.798 79.2 252.318 79.04C251.87 78.88 251.358 78.8 250.782 78.8C250.046 78.8 249.39 78.928 248.814 79.184C248.238 79.44 247.758 79.792 247.374 80.24C246.99 80.656 246.686 81.152 246.462 81.728C246.27 82.272 246.126 82.832 246.03 83.408ZM266.925 98V62.96H274.365V98H266.925Z" fill="#7846FF"/>
<rect x="6" y="78" width="45" height="5" rx="2.5" fill="#7846FF"/>
</svg>
