<svg width="332" height="31" viewBox="0 0 332 31" fill="none" xmlns="http://www.w3.org/2000/svg">
<path d="M1.84 30V25.8H13.88C14.6533 25.8 15.32 25.6133 15.88 25.24C16.4667 24.8667 16.92 24.3867 17.24 23.8C17.5867 23.1867 17.76 22.5467 17.76 21.88C17.76 21.16 17.6 20.5067 17.28 19.92C16.96 19.3333 16.5067 18.8667 15.92 18.52C15.36 18.1733 14.7067 18 13.96 18H8.96C7.38667 18 5.97333 17.68 4.72 17.04C3.49333 16.3733 2.52 15.4533 1.8 14.28C1.08 13.1067 0.72 11.72 0.72 10.12C0.72 8.52 1.06667 7.12 1.76 5.92C2.45333 4.69333 3.4 3.73333 4.6 3.04C5.8 2.34667 7.16 2 8.68 2H20.72V6.2H9.12C8.42667 6.2 7.8 6.37333 7.24 6.72C6.68 7.06667 6.24 7.52 5.92 8.08C5.62667 8.64 5.48 9.24 5.48 9.88C5.48 10.5467 5.62667 11.16 5.92 11.72C6.24 12.2533 6.66667 12.6933 7.2 13.04C7.76 13.36 8.38667 13.52 9.08 13.52H14.2C15.9067 13.52 17.3733 13.8533 18.6 14.52C19.8533 15.1867 20.8133 16.1067 21.48 17.28C22.1733 18.4533 22.52 19.8 22.52 21.32C22.52 23.1067 22.16 24.6533 21.44 25.96C20.7467 27.24 19.7867 28.24 18.56 28.96C17.36 29.6533 16 30 14.48 30H1.84ZM36.5581 30.48C34.4515 30.48 32.5848 30.0133 30.9581 29.08C29.3315 28.12 28.0381 26.84 27.0781 25.24C26.1448 23.6133 25.6781 21.8 25.6781 19.8C25.6781 17.8 26.1448 16 27.0781 14.4C28.0381 12.7733 29.3315 11.4933 30.9581 10.56C32.5848 9.6 34.4515 9.12 36.5581 9.12C38.6381 9.12 40.4915 9.6 42.1181 10.56C43.7448 11.4933 45.0248 12.76 45.9581 14.36C46.9181 15.96 47.3981 17.7733 47.3981 19.8C47.3981 21.8 46.9181 23.6133 45.9581 25.24C45.0248 26.84 43.7448 28.12 42.1181 29.08C40.4915 30.0133 38.6381 30.48 36.5581 30.48ZM36.5581 26.56C37.8115 26.56 38.9048 26.2667 39.8381 25.68C40.7715 25.0667 41.4915 24.2533 41.9981 23.24C42.5048 22.2267 42.7581 21.08 42.7581 19.8C42.7581 18.5467 42.5048 17.4133 41.9981 16.4C41.4915 15.36 40.7715 14.5467 39.8381 13.96C38.9048 13.3467 37.8115 13.04 36.5581 13.04C35.2781 13.04 34.1715 13.3467 33.2381 13.96C32.3315 14.5467 31.6115 15.3467 31.0781 16.36C30.5715 17.3733 30.3181 18.52 30.3181 19.8C30.3181 21.0533 30.5715 22.2 31.0781 23.24C31.6115 24.2533 32.3315 25.0667 33.2381 25.68C34.1715 26.2667 35.2781 26.56 36.5581 26.56ZM62.2 30.48C60.12 30.48 58.28 30.04 56.68 29.16C55.08 28.28 53.8267 27.0267 52.92 25.4C52.04 23.7467 51.6 21.8 51.6 19.56V0.799999H56.2V12.68H56.24C56.6667 11.96 57.2267 11.3333 57.92 10.8C58.6133 10.2667 59.3867 9.85333 60.24 9.56C61.0933 9.26667 62 9.12 62.96 9.12C64.9067 9.12 66.6133 9.56 68.08 10.44C69.5733 11.2933 70.7333 12.4933 71.56 14.04C72.4133 15.5867 72.84 17.4 72.84 19.48C72.84 21.1067 72.5867 22.6 72.08 23.96C71.6 25.2933 70.8933 26.4533 69.96 27.44C69.0533 28.4267 67.9467 29.1867 66.64 29.72C65.3333 30.2267 63.8533 30.48 62.2 30.48ZM62.2 26.56C63.3733 26.56 64.4133 26.28 65.32 25.72C66.2267 25.1333 66.9333 24.3333 67.44 23.32C67.9467 22.3067 68.2 21.1333 68.2 19.8C68.2 18.4933 67.9467 17.3333 67.44 16.32C66.9333 15.3067 66.2267 14.5067 65.32 13.92C64.44 13.3333 63.4133 13.04 62.24 13.04C61.0667 13.04 60.0267 13.3333 59.12 13.92C58.2133 14.48 57.5067 15.2667 57 16.28C56.4933 17.2933 56.24 18.4667 56.24 19.8C56.24 21.1333 56.4933 22.3067 57 23.32C57.5067 24.3333 58.2133 25.1333 59.12 25.72C60.0267 26.28 61.0533 26.56 62.2 26.56ZM77.0297 30V15.4C77.0297 13.5867 77.5364 12.1733 78.5497 11.16C79.5897 10.12 81.0164 9.6 82.8297 9.6H87.7497V13.52H83.6697C83.0297 13.52 82.523 13.7067 82.1497 14.08C81.803 14.4533 81.6297 14.96 81.6297 15.6V30H77.0297ZM101.26 30C98.9664 30 96.953 29.5733 95.2197 28.72C93.513 27.84 92.1797 26.64 91.2197 25.12C90.2597 23.5733 89.7797 21.8 89.7797 19.8C89.7797 17.6933 90.2064 15.84 91.0597 14.24C91.913 12.64 93.0864 11.3867 94.5797 10.48C96.073 9.57333 97.793 9.12 99.7397 9.12C101.926 9.12 103.726 9.58667 105.14 10.52C106.553 11.4533 107.593 12.7067 108.26 14.28C108.953 15.8533 109.3 17.6133 109.3 19.56C109.3 19.8267 109.286 20.1333 109.26 20.48C109.233 20.8267 109.193 21.0933 109.14 21.28H94.6597C94.8197 22.3467 95.2064 23.24 95.8197 23.96C96.433 24.6533 97.2064 25.1867 98.1397 25.56C99.073 25.9067 100.113 26.08 101.26 26.08H106.74V30H101.26ZM94.6197 18.16H104.7C104.673 17.6533 104.593 17.1467 104.46 16.64C104.353 16.1333 104.166 15.6533 103.9 15.2C103.66 14.7467 103.34 14.36 102.94 14.04C102.566 13.6933 102.113 13.4267 101.58 13.24C101.046 13.0267 100.433 12.92 99.7397 12.92C98.9397 12.92 98.233 13.08 97.6197 13.4C97.0064 13.6933 96.4864 14.0933 96.0597 14.6C95.633 15.08 95.2997 15.64 95.0597 16.28C94.8464 16.8933 94.6997 17.52 94.6197 18.16ZM132.462 30.48C130.515 30.48 128.835 30 127.422 29.04C126.009 28.08 124.915 26.8 124.142 25.2C123.395 23.5733 123.022 21.7867 123.022 19.84C123.022 17.8133 123.449 16 124.302 14.4C125.182 12.7733 126.422 11.4933 128.022 10.56C129.649 9.6 131.582 9.12 133.822 9.12C136.035 9.12 137.915 9.6 139.462 10.56C141.035 11.4933 142.235 12.7733 143.062 14.4C143.915 16 144.342 17.7867 144.342 19.76V30H139.742V26.2H139.662C139.262 26.9467 138.742 27.6533 138.102 28.32C137.462 28.96 136.675 29.48 135.742 29.88C134.809 30.28 133.715 30.48 132.462 30.48ZM133.702 26.56C134.902 26.56 135.942 26.2667 136.822 25.68C137.729 25.0667 138.422 24.2533 138.902 23.24C139.409 22.2 139.662 21.04 139.662 19.76C139.662 18.48 139.422 17.3467 138.942 16.36C138.462 15.3467 137.782 14.5467 136.902 13.96C136.022 13.3467 134.969 13.04 133.742 13.04C132.462 13.04 131.369 13.3467 130.462 13.96C129.555 14.5467 128.862 15.3467 128.382 16.36C127.902 17.3733 127.662 18.52 127.662 19.8C127.662 21.0533 127.902 22.2 128.382 23.24C128.862 24.2533 129.542 25.0667 130.422 25.68C131.329 26.2667 132.422 26.56 133.702 26.56ZM132.142 6.92L128.622 2H132.982L136.502 6.92H132.142ZM170.956 30.48C168.849 30.48 166.982 30.04 165.356 29.16C163.729 28.28 162.449 27.0267 161.516 25.4C160.582 23.7467 160.116 21.7867 160.116 19.52V2H164.876V19.84C164.876 21.0133 165.116 22.0933 165.596 23.08C166.102 24.04 166.809 24.8133 167.716 25.4C168.649 25.9867 169.742 26.28 170.996 26.28C172.222 26.28 173.289 25.9867 174.196 25.4C175.129 24.8133 175.836 24.04 176.316 23.08C176.796 22.0933 177.036 21.0133 177.036 19.84V2H181.836V19.84C181.836 21.0133 182.076 22.0933 182.556 23.08C183.062 24.04 183.769 24.8133 184.676 25.4C185.582 25.9867 186.662 26.28 187.916 26.28C189.169 26.28 190.249 25.9867 191.156 25.4C192.062 24.8133 192.756 24.04 193.236 23.08C193.742 22.0933 193.996 21.0133 193.996 19.84V2H198.756V19.52C198.756 21.7867 198.289 23.7467 197.356 25.4C196.422 27.0267 195.142 28.28 193.516 29.16C191.889 30.04 190.022 30.48 187.916 30.48C186.742 30.48 185.609 30.32 184.516 30C183.449 29.68 182.489 29.1867 181.636 28.52C180.782 27.8533 180.049 27.0533 179.436 26.12C178.849 27.0533 178.116 27.8533 177.236 28.52C176.356 29.16 175.382 29.6533 174.316 30C173.276 30.32 172.156 30.48 170.956 30.48ZM214.424 30C212.13 30 210.117 29.5733 208.384 28.72C206.677 27.84 205.344 26.64 204.384 25.12C203.424 23.5733 202.944 21.8 202.944 19.8C202.944 17.6933 203.37 15.84 204.224 14.24C205.077 12.64 206.25 11.3867 207.744 10.48C209.237 9.57333 210.957 9.12 212.904 9.12C215.09 9.12 216.89 9.58667 218.304 10.52C219.717 11.4533 220.757 12.7067 221.424 14.28C222.117 15.8533 222.464 17.6133 222.464 19.56C222.464 19.8267 222.45 20.1333 222.424 20.48C222.397 20.8267 222.357 21.0933 222.304 21.28H207.824C207.984 22.3467 208.37 23.24 208.984 23.96C209.597 24.6533 210.37 25.1867 211.304 25.56C212.237 25.9067 213.277 26.08 214.424 26.08H219.904V30H214.424ZM207.784 18.16H217.864C217.837 17.6533 217.757 17.1467 217.624 16.64C217.517 16.1333 217.33 15.6533 217.064 15.2C216.824 14.7467 216.504 14.36 216.104 14.04C215.73 13.6933 215.277 13.4267 214.744 13.24C214.21 13.0267 213.597 12.92 212.904 12.92C212.104 12.92 211.397 13.08 210.784 13.4C210.17 13.6933 209.65 14.0933 209.224 14.6C208.797 15.08 208.464 15.64 208.224 16.28C208.01 16.8933 207.864 17.52 207.784 18.16ZM240.76 30C239.187 30 237.813 29.6533 236.64 28.96C235.467 28.24 234.547 27.28 233.88 26.08C233.24 24.88 232.92 23.5467 232.92 22.08V6.2H224.76V2H245.84V6.2H237.68V22.68C237.68 23.5333 237.973 24.2667 238.56 24.88C239.147 25.4933 239.893 25.8 240.8 25.8H242.72V30H240.76ZM243.631 30V15.4C243.631 13.5867 244.138 12.1733 245.151 11.16C246.191 10.12 247.618 9.6 249.431 9.6H254.351V13.52H250.271C249.631 13.52 249.125 13.7067 248.751 14.08C248.405 14.4533 248.231 14.96 248.231 15.6V30H243.631ZM265.821 30.48C263.875 30.48 262.195 30 260.781 29.04C259.368 28.08 258.275 26.8 257.501 25.2C256.755 23.5733 256.381 21.7867 256.381 19.84C256.381 17.8133 256.808 16 257.661 14.4C258.541 12.7733 259.781 11.4933 261.381 10.56C263.008 9.6 264.941 9.12 267.181 9.12C269.395 9.12 271.275 9.6 272.821 10.56C274.395 11.4933 275.595 12.7733 276.421 14.4C277.275 16 277.701 17.7867 277.701 19.76V30H273.101V26.2H273.021C272.621 26.9467 272.101 27.6533 271.461 28.32C270.821 28.96 270.035 29.48 269.101 29.88C268.168 30.28 267.075 30.48 265.821 30.48ZM267.061 26.56C268.261 26.56 269.301 26.2667 270.181 25.68C271.088 25.0667 271.781 24.2533 272.261 23.24C272.768 22.2 273.021 21.04 273.021 19.76C273.021 18.48 272.781 17.3467 272.301 16.36C271.821 15.3467 271.141 14.5467 270.261 13.96C269.381 13.3467 268.328 13.04 267.101 13.04C265.821 13.04 264.728 13.3467 263.821 13.96C262.915 14.5467 262.221 15.3467 261.741 16.36C261.261 17.3733 261.021 18.52 261.021 19.8C261.021 21.0533 261.261 22.2 261.741 23.24C262.221 24.2533 262.901 25.0667 263.781 25.68C264.688 26.2667 265.781 26.56 267.061 26.56ZM290.364 30.48C289.297 30.48 288.337 30.1867 287.484 29.6C286.657 29.0133 286.057 28.2267 285.684 27.24L279.444 9.6H284.444L289.764 25.44C289.844 25.6267 289.937 25.76 290.044 25.84C290.15 25.92 290.27 25.96 290.404 25.96C290.537 25.96 290.657 25.92 290.764 25.84C290.897 25.76 290.99 25.6267 291.044 25.44L296.404 9.6H301.324L295.044 27.24C294.697 28.2267 294.097 29.0133 293.244 29.6C292.39 30.1867 291.43 30.48 290.364 30.48ZM314.228 30C311.935 30 309.922 29.5733 308.188 28.72C306.482 27.84 305.148 26.64 304.188 25.12C303.228 23.5733 302.748 21.8 302.748 19.8C302.748 17.6933 303.175 15.84 304.028 14.24C304.882 12.64 306.055 11.3867 307.548 10.48C309.042 9.57333 310.762 9.12 312.708 9.12C314.895 9.12 316.695 9.58667 318.108 10.52C319.522 11.4533 320.562 12.7067 321.228 14.28C321.922 15.8533 322.268 17.6133 322.268 19.56C322.268 19.8267 322.255 20.1333 322.228 20.48C322.202 20.8267 322.162 21.0933 322.108 21.28H307.628C307.788 22.3467 308.175 23.24 308.788 23.96C309.402 24.6533 310.175 25.1867 311.108 25.56C312.042 25.9067 313.082 26.08 314.228 26.08H319.708V30H314.228ZM307.588 18.16H317.668C317.642 17.6533 317.562 17.1467 317.428 16.64C317.322 16.1333 317.135 15.6533 316.868 15.2C316.628 14.7467 316.308 14.36 315.908 14.04C315.535 13.6933 315.082 13.4267 314.548 13.24C314.015 13.0267 313.402 12.92 312.708 12.92C311.908 12.92 311.202 13.08 310.588 13.4C309.975 13.6933 309.455 14.0933 309.028 14.6C308.602 15.08 308.268 15.64 308.028 16.28C307.815 16.8933 307.668 17.52 307.588 18.16ZM326.565 30V0.799999H331.165V30H326.565Z" fill="white"/>
</svg>
