<svg width="556" height="559" viewBox="0 0 556 559" fill="none" xmlns="http://www.w3.org/2000/svg">
<g filter="url(#filter0_d_114_87)">
<path d="M492 48.0002C454.238 0.700542 405 104 307.5 97.4999C284.582 95.9721 258.405 84.6096 232.5 70.1528C148.197 23.1054 66.7804 -56.714 110 63.0001C166.5 219.5 45 228 7.00012 318C-30.9998 408 115.406 301.408 152.5 378.5C189.594 455.593 179 547 232.5 532.5C286 518 275.919 443.765 296.5 378.5C317.081 313.235 446 480.5 492 424.5C538 368.5 428.2 295.28 427.5 252C426.801 208.721 529.762 95.2999 492 48.0002Z" fill="url(#paint0_linear_114_87)"/>
<path d="M62.8874 408.459C78.1033 387.778 108.965 375.996 108.965 375.996C108.965 375.996 92.3698 388.99 89.9291 409.461C87.4883 429.931 84.8759 457.782 71.6661 457.746C58.4563 457.71 47.6715 429.141 62.8874 408.459Z" fill="url(#paint1_linear_114_87)"/>
<path d="M70.6392 103.493C91.4929 118.472 103.626 149.198 103.626 149.198C103.626 149.198 90.4432 132.752 69.9462 130.545C49.4491 128.338 21.5702 126.043 21.4557 112.834C21.3413 99.6243 49.7854 88.5143 70.6392 103.493Z" fill="url(#paint2_linear_114_87)"/>
<path d="M511.792 234.758C486.587 229.862 455.909 242.113 455.909 242.113C455.909 242.113 476.918 240.422 492.586 253.82C508.254 267.219 529.049 285.929 538.738 276.95C548.428 267.971 536.997 239.654 511.792 234.758Z" fill="url(#paint3_linear_114_87)"/>
<path d="M122.209 411.112C116.988 404.658 106.069 401.666 106.069 401.666C106.069 401.666 111.868 405.504 112.518 412.281C113.168 419.058 113.799 428.3 118.528 427.881C123.257 427.461 127.43 417.566 122.209 411.112Z" fill="url(#paint4_linear_114_87)"/>
<path d="M101.894 454.205C98.4263 446.663 100.589 435.55 100.589 435.55C100.589 435.55 101.456 442.45 107.241 446.039C113.026 449.628 121.029 454.294 118.555 458.346C116.081 462.398 105.362 461.747 101.894 454.205Z" fill="url(#paint5_linear_114_87)"/>
<circle cx="518.5" cy="310.5" r="12.5" fill="url(#paint6_linear_114_87)"/>
<circle cx="73" cy="164" r="20" fill="url(#paint7_linear_114_87)"/>
<path d="M75.6935 290.152C70.3815 290.152 65.6775 289.096 61.5815 286.984C57.5495 284.808 54.3815 281.704 52.0775 277.672C49.7735 273.64 48.6215 268.872 48.6215 263.368V221.8H64.4615V263.944C64.4615 266.248 64.9095 268.328 65.8055 270.184C66.7015 272.04 67.9815 273.512 69.6455 274.6C71.3735 275.688 73.3895 276.232 75.6935 276.232C77.9975 276.232 79.9815 275.688 81.6455 274.6C83.3095 273.512 84.5895 272.04 85.4855 270.184C86.4455 268.328 86.9255 266.248 86.9255 263.944V221.8H102.766V263.944C102.766 266.248 103.214 268.328 104.11 270.184C105.006 272.04 106.286 273.512 107.95 274.6C109.678 275.688 111.694 276.232 113.998 276.232C116.302 276.232 118.286 275.688 119.95 274.6C121.678 273.512 122.99 272.04 123.886 270.184C124.782 268.328 125.23 266.248 125.23 263.944V221.8H141.07V263.368C141.07 268.872 139.918 273.64 137.614 277.672C135.31 281.704 132.11 284.808 128.014 286.984C123.982 289.096 119.31 290.152 113.998 290.152C111.374 290.152 108.878 289.832 106.51 289.192C104.206 288.616 102.062 287.72 100.078 286.504C98.1575 285.288 96.3975 283.816 94.7975 282.088C93.2615 283.816 91.5015 285.288 89.5175 286.504C87.5335 287.656 85.3895 288.552 83.0855 289.192C80.7815 289.832 78.3175 290.152 75.6935 290.152ZM177.577 289C172.009 289 167.113 287.976 162.889 285.928C158.665 283.816 155.369 280.936 153.001 277.288C150.697 273.576 149.545 269.288 149.545 264.424C149.545 259.048 150.665 254.44 152.905 250.6C155.145 246.76 158.121 243.816 161.833 241.768C165.609 239.656 169.769 238.6 174.313 238.6C179.497 238.6 183.817 239.688 187.273 241.864C190.793 244.04 193.449 247.016 195.241 250.792C197.033 254.504 197.929 258.76 197.929 263.56C197.929 264.392 197.865 265.384 197.737 266.536C197.673 267.624 197.577 268.488 197.449 269.128H165.193C165.577 270.792 166.313 272.2 167.401 273.352C168.489 274.504 169.865 275.368 171.529 275.944C173.193 276.456 175.049 276.712 177.097 276.712H192.169V289H177.577ZM164.809 259.816H183.529C183.401 258.792 183.209 257.8 182.953 256.84C182.697 255.88 182.281 255.048 181.705 254.344C181.193 253.576 180.585 252.936 179.881 252.424C179.177 251.848 178.345 251.4 177.385 251.08C176.489 250.76 175.465 250.6 174.313 250.6C172.841 250.6 171.529 250.856 170.377 251.368C169.225 251.88 168.265 252.584 167.497 253.48C166.729 254.312 166.121 255.304 165.673 256.456C165.289 257.544 165.001 258.664 164.809 259.816ZM241.447 289C237.351 289 233.735 288.104 230.599 286.312C227.527 284.456 225.095 281.992 223.303 278.92C221.575 275.848 220.711 272.424 220.711 268.648V235.24H202.471V221.8H254.983V235.24H236.839V270.088C236.839 271.56 237.351 272.84 238.375 273.928C239.399 275.016 240.679 275.56 242.215 275.56H247.495V289H241.447ZM248.215 289V254.248C248.215 249.768 249.495 246.248 252.055 243.688C254.615 241.128 258.167 239.848 262.711 239.848H277.015V251.944H266.359C265.463 251.944 264.695 252.264 264.055 252.904C263.415 253.48 263.095 254.248 263.095 255.208V289H248.215ZM303.438 290.152C299.086 290.152 295.246 289.032 291.918 286.792C288.59 284.552 285.998 281.544 284.142 277.768C282.286 273.928 281.358 269.608 281.358 264.808C281.358 259.816 282.446 255.368 284.622 251.464C286.798 247.496 289.87 244.36 293.838 242.056C297.87 239.752 302.606 238.6 308.046 238.6C313.55 238.6 318.222 239.752 322.062 242.056C325.966 244.296 328.942 247.4 330.99 251.368C333.102 255.272 334.158 259.656 334.158 264.52V289H319.566V281.128H319.182C318.286 282.856 317.134 284.424 315.726 285.832C314.318 287.176 312.59 288.232 310.542 289C308.558 289.768 306.19 290.152 303.438 290.152ZM307.854 277.288C310.094 277.288 312.046 276.744 313.71 275.656C315.438 274.504 316.75 272.936 317.646 270.952C318.542 268.968 318.99 266.76 318.99 264.328C318.99 261.96 318.542 259.816 317.646 257.896C316.75 255.976 315.438 254.472 313.71 253.384C312.046 252.232 310.094 251.656 307.854 251.656C305.55 251.656 303.534 252.232 301.806 253.384C300.078 254.472 298.766 255.976 297.87 257.896C296.974 259.816 296.526 261.96 296.526 264.328C296.526 266.76 296.974 268.968 297.87 270.952C298.766 272.936 300.078 274.504 301.806 275.656C303.534 276.744 305.55 277.288 307.854 277.288ZM363.782 290.152C360.838 290.152 358.15 289.384 355.718 287.848C353.286 286.312 351.622 284.232 350.726 281.608L336.71 239.752H353.03L362.918 274.888C363.046 275.144 363.174 275.336 363.302 275.464C363.494 275.592 363.686 275.656 363.878 275.656C364.134 275.656 364.326 275.592 364.454 275.464C364.646 275.336 364.774 275.144 364.838 274.888L374.918 239.752H390.854L376.838 281.608C375.942 284.232 374.278 286.312 371.846 287.848C369.478 289.384 366.79 290.152 363.782 290.152ZM421.234 289C415.666 289 410.77 287.976 406.546 285.928C402.322 283.816 399.026 280.936 396.658 277.288C394.354 273.576 393.202 269.288 393.202 264.424C393.202 259.048 394.322 254.44 396.562 250.6C398.802 246.76 401.778 243.816 405.49 241.768C409.266 239.656 413.426 238.6 417.97 238.6C423.154 238.6 427.474 239.688 430.93 241.864C434.45 244.04 437.106 247.016 438.898 250.792C440.69 254.504 441.586 258.76 441.586 263.56C441.586 264.392 441.522 265.384 441.394 266.536C441.33 267.624 441.234 268.488 441.106 269.128H408.85C409.234 270.792 409.97 272.2 411.058 273.352C412.146 274.504 413.522 275.368 415.186 275.944C416.85 276.456 418.706 276.712 420.754 276.712H435.826V289H421.234ZM408.466 259.816H427.186C427.058 258.792 426.866 257.8 426.61 256.84C426.354 255.88 425.938 255.048 425.362 254.344C424.85 253.576 424.242 252.936 423.538 252.424C422.834 251.848 422.002 251.4 421.042 251.08C420.146 250.76 419.122 250.6 417.97 250.6C416.498 250.6 415.186 250.856 414.034 251.368C412.882 251.88 411.922 252.584 411.154 253.48C410.386 254.312 409.778 255.304 409.33 256.456C408.946 257.544 408.658 258.664 408.466 259.816ZM450.256 289V218.92H465.136V289H450.256Z" fill="white"/>
</g>
<defs>
<filter id="filter0_d_114_87" x="0.758362" y="0.199219" width="554.908" height="558.331" filterUnits="userSpaceOnUse" color-interpolation-filters="sRGB">
<feFlood flood-opacity="0" result="BackgroundImageFix"/>
<feColorMatrix in="SourceAlpha" type="matrix" values="0 0 0 0 0 0 0 0 0 0 0 0 0 0 0 0 0 0 127 0" result="hardAlpha"/>
<feOffset dx="8" dy="19"/>
<feGaussianBlur stdDeviation="2.75"/>
<feComposite in2="hardAlpha" operator="out"/>
<feColorMatrix type="matrix" values="0 0 0 0 0 0 0 0 0 0 0 0 0 0 0 0 0 0 0.25 0"/>
<feBlend mode="normal" in2="BackgroundImageFix" result="effect1_dropShadow_114_87"/>
<feBlend mode="normal" in="SourceGraphic" in2="effect1_dropShadow_114_87" result="shape"/>
</filter>
<linearGradient id="paint0_linear_114_87" x1="252.008" y1="0.199219" x2="310.546" y2="421.201" gradientUnits="userSpaceOnUse">
<stop stop-color="#7846FF"/>
<stop offset="1" stop-color="#482A99"/>
</linearGradient>
<linearGradient id="paint1_linear_114_87" x1="104.008" y1="373.176" x2="89.6947" y2="441.176" gradientUnits="userSpaceOnUse">
<stop stop-color="#7846FF"/>
<stop offset="1" stop-color="#482A99"/>
</linearGradient>
<linearGradient id="paint2_linear_114_87" x1="106.389" y1="144.208" x2="38.2303" y2="130.672" gradientUnits="userSpaceOnUse">
<stop stop-color="#7846FF"/>
<stop offset="1" stop-color="#482A99"/>
</linearGradient>
<linearGradient id="paint3_linear_114_87" x1="457.643" y1="236.68" x2="514.252" y2="276.983" gradientUnits="userSpaceOnUse">
<stop stop-color="#7846FF"/>
<stop offset="1" stop-color="#482A99"/>
</linearGradient>
<linearGradient id="paint4_linear_114_87" x1="107.875" y1="400.569" x2="114.011" y2="422.396" gradientUnits="userSpaceOnUse">
<stop stop-color="#7846FF"/>
<stop offset="1" stop-color="#482A99"/>
</linearGradient>
<linearGradient id="paint5_linear_114_87" x1="98.8048" y1="436.682" x2="115.644" y2="451.865" gradientUnits="userSpaceOnUse">
<stop stop-color="#7846FF"/>
<stop offset="1" stop-color="#482A99"/>
</linearGradient>
<linearGradient id="paint6_linear_114_87" x1="518.5" y1="298" x2="521.086" y2="317.759" gradientUnits="userSpaceOnUse">
<stop stop-color="#7846FF"/>
<stop offset="1" stop-color="#482A99"/>
</linearGradient>
<linearGradient id="paint7_linear_114_87" x1="73" y1="144" x2="77.1378" y2="175.614" gradientUnits="userSpaceOnUse">
<stop stop-color="#7846FF"/>
<stop offset="1" stop-color="#482A99"/>
</linearGradient>
</defs>
</svg>
