<svg width="1887" height="348" viewBox="0 0 1887 348" fill="none" xmlns="http://www.w3.org/2000/svg">
<path d="M0 134.108C0 134.108 109.952 104.536 181.276 109.031C252.601 113.527 296.832 127.284 340.445 153.285C384.059 179.285 472.664 243.407 517.3 267.606C561.936 291.806 647.551 314.07 734.684 320.71C821.818 327.351 885.305 319.061 977.86 295.633C1070.41 272.206 1269.67 149.597 1352.94 98.7054C1436.21 47.8139 1497.37 16.0989 1580.64 6.51067C1663.91 -3.07758 1689 -2.5 1762.5 16C1836 34.4999 1886.45 74.5 1886.45 133.5C1886.45 192.5 1886.45 348 1886.45 348H0V134.108Z" fill="white"/>
</svg>
