<svg width="2010" height="290" viewBox="0 0 2010 290" fill="none" xmlns="http://www.w3.org/2000/svg">
<path d="M1628.94 262.619V152.119C1628.94 152.119 1566.58 49.0523 1481.31 31.1189C1396.05 13.1855 1331.04 22.9876 1261.79 43.6189C1192.54 64.2502 1148.53 103.119 1087.44 134.619C1026.36 166.119 936.643 192.852 835.466 200.119C734.288 207.385 626.122 211.119 530.677 161.619C435.231 112.119 395.055 29.9011 288.881 5.6189C182.708 -18.6633 0 43.6189 0 43.6189V262.619H1628.94Z" fill="#1C1E21"/>
<path d="M2010 289.989V179.329C2010 179.329 1937.8 76.1127 1839.08 58.1532C1740.36 40.1938 1665.09 50.0102 1584.91 70.6714C1504.74 91.3326 1453.78 130.258 1383.05 161.803C1312.33 193.349 1208.46 220.121 1091.31 227.399C974.167 234.676 848.931 238.415 738.423 188.843C627.916 139.271 581.399 56.9336 458.47 32.6162C335.542 8.2988 124 70.6714 124 70.6714V289.989H2010Z" fill="#131517"/>
</svg>
