<svg width="1280" height="462" viewBox="0 0 1280 462" fill="none" xmlns="http://www.w3.org/2000/svg">
<path d="M1280 47V157.5C1280 157.5 1231 260.567 1164 278.5C1097 296.433 1045.91 286.631 991.5 266C937.087 245.369 902.5 206.5 854.5 175C806.5 143.5 736.004 116.767 656.5 109.5C576.996 102.233 492 98.5 417 148C342 197.5 310.43 279.718 227 304C143.57 328.282 0 266 0 266V47H1280Z" fill="#1C1E21"/>
<path d="M1280 0V110.5C1280 110.5 1231 213.567 1164 231.5C1097 249.433 1045.91 239.631 991.5 219C937.087 198.369 902.5 159.5 854.5 128C806.5 96.5 736.004 69.7666 656.5 62.5C576.996 55.2334 492 51.5 417 101C342 150.5 310.43 232.718 227 257C143.57 281.282 0 219 0 219V0H1280Z" fill="#131517"/>
<path d="M199.5 276L81 281.5C81 281.5 89.5 309.5 69.6067 321C49.7134 332.5 51 365 62.5 373.5C74 382 79.6429 379 87.5 373.5C95.3571 368 87.5 329 109.5 348.5C131.5 368 74 436.5 102.5 456C131 475.5 128 440 145.5 423.5C163 407 96.5 348.5 163 336C229.5 323.5 199.5 276 199.5 276Z" fill="#1C1E21"/>
<path d="M553.321 85L434.821 90.5C434.821 90.5 436.215 118.5 416.321 130C396.428 141.5 404.821 174 416.321 182.5C427.821 191 433.464 188 441.321 182.5C449.178 177 441.321 138 463.321 157.5C485.321 177 452.5 252.5 465.5 267C478.5 281.5 499 280.5 503.5 258.5C508 236.5 449 150 515.5 137.5C582 125 553.321 85 553.321 85Z" fill="#1C1E21"/>
<circle cx="540" cy="171" r="15" fill="#1C1E21"/>
<circle cx="893" cy="243" r="15" fill="#1C1E21"/>
<circle cx="824.5" cy="282.5" r="7.5" fill="#1C1E21"/>
<path d="M1282 148.5C1282 148.5 1288.5 395.5 1282 414.5C1275.5 433.5 1242 417 1254 400.5C1266 384 1259.5 370 1248 356C1236.5 342 1254.93 329.5 1244.5 315C1234.07 300.5 1221.5 312.631 1215.5 296C1209.5 279.369 1226 243 1190 267C1154 291 1282 148.5 1282 148.5Z" fill="#1C1E21"/>
<path d="M166.364 428C170.864 417 161.864 408 161.864 408C161.864 408 179.864 426 180.864 438.5C181.864 451 166.364 459.5 161.864 453.5C157.364 447.5 161.864 439 166.364 428Z" fill="#1C1E21"/>
<path d="M871.5 218.5C856.19 231.132 898 279 855 279C812 279 860 210.5 836 196.5C812 182.5 835.5 165.5 823 156.5C815.791 151.31 854.164 158.958 879.5 176C898.098 188.509 905.751 211.6 903 210.5C896.5 207.9 886.81 205.867 871.5 218.5Z" fill="#1C1E21"/>
</svg>
